<svg xmlns="http://www.w3.org/2000/svg" viewBox="0 0 24 24"><path d="M22.81,8.35a6.71,6.71,0,0,0-4.18-1.58V5.86a5.57,5.57,0,0,0-2.18-4.34A7.12,7.12,0,0,0,11.36,0c-3.25.27-6,3-6,6.05v.69A6.71,6.71,0,0,0,1.19,8.35,4.74,4.74,0,0,0,.07,12.58L1,19.26C1.3,21.61,2.37,24,8.21,24h7.58c5.84,0,6.91-2.39,7.19-4.72l.95-6.71A4.72,4.72,0,0,0,22.81,8.35ZM11.54,1.7a5.07,5.07,0,0,1,3.64,1.06,4,4,0,0,1,1.56,3.1v.83H7.26V6.08A4.72,4.72,0,0,1,11.54,1.7ZM22.05,12.37l-.95,6.72c-.21,1.77-.76,3.23-5.31,3.23H8.21c-4.55,0-5.1-1.46-5.31-3.25L2,12.38A3.27,3.27,0,0,1,2.6,9.47c.74-.73,2.2-1.1,4.35-1.1h10.1c2.14,0,3.61.37,4.35,1.1A3.26,3.26,0,0,1,22.05,12.37Zm-5.62.74A1.2,1.2,0,0,1,15.16,12a1.19,1.19,0,0,1,1.26-1.12h0A1.19,1.19,0,0,1,17.69,12,1.19,1.19,0,0,1,16.43,13.11Zm-8.85,0A1.2,1.2,0,0,1,6.31,12a1.19,1.19,0,0,1,1.26-1.12h0A1.2,1.2,0,0,1,8.85,12,1.2,1.2,0,0,1,7.58,13.11Z" transform="translate(0 0)" style="fill:#222"/></svg>