<svg xmlns="http://www.w3.org/2000/svg" viewBox="0 0 24 24"><path d="M15.35,24H8.65C2.59,24,0,21.41,0,15.35V8.65C0,2.59,2.59,0,8.65,0h6.7C21.41,0,24,2.59,24,8.65v6.7C24,21.41,21.41,24,15.35,24ZM8.65,1.67c-5.15,0-7,1.83-7,7v6.7c0,5.15,1.83,7,7,7h6.7c5.15,0,7-1.83,7-7V8.65c0-5.15-1.83-7-7-7Zm8.72,5.2-3.57-2a4,4,0,0,0-3.6,0l-3.56,2a4,4,0,0,0-1.91,3.23V13.9a4,4,0,0,0,1.91,3.23l3.57,2a3.78,3.78,0,0,0,1.79.42,3.82,3.82,0,0,0,1.8-.42l3.57-2a4,4,0,0,0,1.91-3.23V10.1A4,4,0,0,0,17.37,6.87ZM11,6.36h0a2.15,2.15,0,0,1,1-.22,2,2,0,0,1,1,.22l3.58,2a1.58,1.58,0,0,1,.3.24L12,11.4,7.15,8.59a2.21,2.21,0,0,1,.3-.25Zm-3.57,9.3a2.29,2.29,0,0,1-1-1.76V10.11h0l4.75,2.75V17.7s-.1,0-.14-.05ZM17.6,13.9a2.34,2.34,0,0,1-1,1.77l-3.57,2a.67.67,0,0,1-.15.06V12.85l4.76-2.76h0Z" style="fill:#222"/></svg>