<svg xmlns="http://www.w3.org/2000/svg" viewBox="0 0 24 24"><path d="M18.08,24a10.2,10.2,0,0,1-4-.88,20.49,20.49,0,0,1-4-2.31,34.39,34.39,0,0,1-3.76-3.2,33.9,33.9,0,0,1-3.2-3.76,20.55,20.55,0,0,1-2.28-4,10.22,10.22,0,0,1-.87-4A6.78,6.78,0,0,1,.46,3.44,6,6,0,0,1,2,1.28,4,4,0,0,1,4.84,0,3,3,0,0,1,6.11.28a2.64,2.64,0,0,1,1.08.91L9.77,4.83a5.17,5.17,0,0,1,.54,1,2.58,2.58,0,0,1,.22,1A2.3,2.3,0,0,1,10.17,8,4.31,4.31,0,0,1,9.42,9l-.76.79,0,.08a9,9,0,0,0,.91,1.24c.49.56,1,1.14,1.58,1.72s1.21,1.15,1.72,1.58a7.53,7.53,0,0,0,1.29.93h0l.8-.75a4.37,4.37,0,0,1,1-.77,2.34,2.34,0,0,1,2.18-.12,4.94,4.94,0,0,1,.93.52l3.71,2.63a2.54,2.54,0,0,1,.9,1.06A3.16,3.16,0,0,1,24,19.07a3.67,3.67,0,0,1-.36,1.57,5.34,5.34,0,0,1-.9,1.34,5.66,5.66,0,0,1-2.13,1.53A6.37,6.37,0,0,1,18.08,24ZM4.84,1.67a2.45,2.45,0,0,0-1.73.81A4.33,4.33,0,0,0,2,4.06a4.91,4.91,0,0,0-.35,1.85,8.59,8.59,0,0,0,.74,3.32,18.84,18.84,0,0,0,2.1,3.64,29.52,29.52,0,0,0,3,3.55,31.08,31.08,0,0,0,3.56,3,19.17,19.17,0,0,0,3.67,2.12,6.7,6.7,0,0,0,5.17.39,4.26,4.26,0,0,0,1.53-1.11,3.87,3.87,0,0,0,.62-.93,1.9,1.9,0,0,0,.2-.86,1.29,1.29,0,0,0-.12-.56.81.81,0,0,0-.31-.34l-3.7-2.63a3.26,3.26,0,0,0-.62-.34.69.69,0,0,0-.72,0,2.33,2.33,0,0,0-.64.5l-.86.84a1.55,1.55,0,0,1-1.62.33l-.29-.13a9.05,9.05,0,0,1-1.59-1.13c-.55-.46-1.13-1-1.82-1.68s-1.1-1.15-1.67-1.81a9.88,9.88,0,0,1-1.14-1.58l-.14-.33A1.85,1.85,0,0,1,7,9.69a1.43,1.43,0,0,1,.42-1l.84-.87a3.87,3.87,0,0,0,.5-.62.83.83,0,0,0,.12-.38.94.94,0,0,0-.09-.36,2.83,2.83,0,0,0-.35-.62L5.81,2.15A1,1,0,0,0,5.4,1.8,1.35,1.35,0,0,0,4.84,1.67Zm9.3,13.71Z"/><path d="M19.26,9.49a.84.84,0,0,1-.84-.84,3.79,3.79,0,0,0-1.08-2,3,3,0,0,0-2-1.11.84.84,0,1,1,0-1.67,4.56,4.56,0,0,1,3.21,1.64,5.14,5.14,0,0,1,1.53,3.1A.84.84,0,0,1,19.26,9.49Z"/><path d="M23.16,9.49a.84.84,0,0,1-.83-.84,7,7,0,0,0-7-7,.84.84,0,1,1,0-1.67A8.66,8.66,0,0,1,24,8.65.85.85,0,0,1,23.16,9.49Z"/></svg>