<svg xmlns="http://www.w3.org/2000/svg" viewBox="0 0 24 24"><path d="M18.11,24a10.24,10.24,0,0,1-4-.88,20.49,20.49,0,0,1-4-2.31,33.58,33.58,0,0,1-3.77-3.2,32.86,32.86,0,0,1-3.2-3.76,20.11,20.11,0,0,1-2.29-4,10.22,10.22,0,0,1-.87-4A6.78,6.78,0,0,1,.46,3.44,6,6,0,0,1,2,1.28,4.06,4.06,0,0,1,4.85,0,3.06,3.06,0,0,1,6.12.28a2.71,2.71,0,0,1,1.08.91L9.78,4.83a4.65,4.65,0,0,1,.54,1,2.41,2.41,0,0,1,.22,1A2.38,2.38,0,0,1,10.19,8,4.63,4.63,0,0,1,9.44,9l-.77.79,0,.08a9.43,9.43,0,0,0,.92,1.24c.48.56,1,1.14,1.58,1.72s1.21,1.15,1.72,1.58a7.53,7.53,0,0,0,1.29.93h0l.81-.75a4.14,4.14,0,0,1,1-.77,2.34,2.34,0,0,1,2.18-.12,5,5,0,0,1,.94.52l3.71,2.63a2.47,2.47,0,0,1,.9,1.06A3.16,3.16,0,0,1,24,19.07a3.67,3.67,0,0,1-.36,1.57,5.34,5.34,0,0,1-.9,1.34,5.66,5.66,0,0,1-2.13,1.53A6.37,6.37,0,0,1,18.11,24ZM4.85,1.67a2.49,2.49,0,0,0-1.74.81A4.45,4.45,0,0,0,2,4.06a4.91,4.91,0,0,0-.34,1.85,8.59,8.59,0,0,0,.74,3.32,18.84,18.84,0,0,0,2.1,3.64,29.52,29.52,0,0,0,3,3.55,31.08,31.08,0,0,0,3.56,3,19.24,19.24,0,0,0,3.68,2.12A6.72,6.72,0,0,0,20,22a4.34,4.34,0,0,0,1.53-1.11,3.6,3.6,0,0,0,.62-.93,1.9,1.9,0,0,0,.2-.86,1.43,1.43,0,0,0-.11-.56,1,1,0,0,0-.32-.34l-3.71-2.63a3.21,3.21,0,0,0-.61-.34.69.69,0,0,0-.72,0,2.23,2.23,0,0,0-.65.5l-.85.84a1.57,1.57,0,0,1-1.63.33l-.29-.13a9.08,9.08,0,0,1-1.6-1.13c-.54-.46-1.12-1-1.82-1.68-.55-.56-1.09-1.15-1.67-1.81A10.56,10.56,0,0,1,7.2,10.57l-.14-.33A1.85,1.85,0,0,1,7,9.69a1.43,1.43,0,0,1,.42-1l.84-.87a3.87,3.87,0,0,0,.5-.62.72.72,0,0,0,.12-.38,1.13,1.13,0,0,0-.08-.36,3.39,3.39,0,0,0-.36-.62L5.82,2.15a1,1,0,0,0-.41-.35A1.39,1.39,0,0,0,4.85,1.67Zm9.31,13.71Z"/></svg>