<svg xmlns="http://www.w3.org/2000/svg" viewBox="0 0 24 24"><path d="M18,24H6C2.81,24,.79,22.14.6,19L0,9.81A4.9,4.9,0,0,1,1.39,6.06,5.19,5.19,0,0,1,5.15,4.47,1,1,0,0,0,6,3.92l.82-1.6A4.67,4.67,0,0,1,10.7,0h2.61a4.66,4.66,0,0,1,3.83,2.31L18,3.94a1,1,0,0,0,.89.53,5.19,5.19,0,0,1,3.76,1.59A4.9,4.9,0,0,1,24,9.81L23.4,19C23.19,22.19,21.22,24,18,24ZM10.7,1.67a2.94,2.94,0,0,0-2.31,1.4L7.57,4.68A2.71,2.71,0,0,1,5.15,6.14,3.47,3.47,0,0,0,2.64,7.2a3.28,3.28,0,0,0-.92,2.5l.59,9.22c.14,2.26,1.38,3.41,3.71,3.41H18c2.31,0,3.56-1.15,3.71-3.41l.59-9.22a3.28,3.28,0,0,0-.92-2.5,3.47,3.47,0,0,0-2.51-1.06A2.72,2.72,0,0,1,16.44,4.7l-.83-1.64a3,3,0,0,0-2.3-1.39Zm3.87,5.86a.84.84,0,0,0-.86-.83H10.29a.84.84,0,1,0,0,1.67h3.42A.84.84,0,0,0,14.57,7.53ZM12,19.53a4.47,4.47,0,1,1,4.57-4.46A4.52,4.52,0,0,1,12,19.53Zm0-7.25a2.79,2.79,0,1,0,2.86,2.79A2.82,2.82,0,0,0,12,12.28Z" transform="translate(0)" style="fill:#ccc"/></svg>