<svg xmlns="http://www.w3.org/2000/svg" viewBox="0 0 24 24"><path d="M24,7.86l-.33-3.1C23.17,1.4,21.59,0,18.2,0H5.79C2.4,0,.83,1.38.33,4.79L0,7.87a4.52,4.52,0,0,0,.82,3,.89.89,0,0,0,0,.23v5C.84,21.68,3.27,24,8.92,24h6.21c5.69,0,8.08-2.36,8.08-7.84v-5a.67.67,0,0,0-.06-.28A4.42,4.42,0,0,0,24,7.86ZM21.93,5,22.25,8a2.82,2.82,0,0,1-2.5,3.14,2.16,2.16,0,0,1-.44,0,3,3,0,0,1-2.95-2.58h0V8.25l-.67-6.56H18.2C20.73,1.68,21.57,2.42,21.93,5ZM14,10.39a2.83,2.83,0,0,1-3.92,0,2.47,2.47,0,0,1-.64-2l.7-6.72H13.9l.73,7.1h0A2.47,2.47,0,0,1,14,10.39ZM1.75,8l.3-3c.37-2.56,1.21-3.3,3.74-3.3H8.35L7.63,8.61a3,3,0,0,1-2.94,2.58,2.85,2.85,0,0,1-3-2.74A3,3,0,0,1,1.75,8ZM10,22.39v-2c0-1.41.57-2,2-2s2,.55,2,2v2Zm5.77,0v-2a3.3,3.3,0,0,0-3-3.64,3.39,3.39,0,0,0-.78,0,3.37,3.37,0,0,0-3.75,2.88,3.22,3.22,0,0,0,0,.76v1.95c-4.23-.15-5.77-1.83-5.77-6.19V12.36a4.94,4.94,0,0,0,2.17.51A4.83,4.83,0,0,0,8.43,11a4.29,4.29,0,0,0,.36.48,4.55,4.55,0,0,0,6.28.2c.07-.07.14-.13.2-.2s.22-.29.34-.44a4.69,4.69,0,0,0,5.91,1.27v3.85c0,4.36-1.52,6-5.74,6.19Z"/></svg>