<svg xmlns="http://www.w3.org/2000/svg" viewBox="0 0 24 24"><path d="M15.75,14.57a.83.83,0,0,1,0,1.18.85.85,0,0,1-.59.25.83.83,0,0,1-.59-.25L12,13.18,9.43,15.75a.83.83,0,0,1-.59.25.85.85,0,0,1-.59-.25.83.83,0,0,1,0-1.18L10.82,12,8.25,9.43A.83.83,0,0,1,9.43,8.25L12,10.82l2.57-2.57a.83.83,0,0,1,1.18,1.18L13.18,12Zm8.25.78V8.65C24,2.59,21.41,0,15.35,0H8.65C2.59,0,0,2.59,0,8.65v6.7C0,21.41,2.59,24,8.65,24h6.7C21.41,24,24,21.41,24,15.35ZM15.35,1.67c5.15,0,7,1.83,7,7v6.7c0,5.15-1.83,7-7,7H8.65c-5.15,0-7-1.83-7-7V8.65c0-5.15,1.83-7,7-7Z"/></svg>