<svg xmlns="http://www.w3.org/2000/svg" viewBox="0 0 512.04 512.07"><path d="M320.67,128.2H191.33a63.11,63.11,0,0,0-63.13,63.07V320.64a63.11,63.11,0,0,0,63.07,63.13h129.4A63.11,63.11,0,0,0,383.8,320.7V191.3a63.1,63.1,0,0,0-63.1-63.1ZM256,338.76A82.76,82.76,0,1,1,338.76,256h0A82.87,82.87,0,0,1,256,338.76Zm83.23-145.1a20.37,20.37,0,1,1,20.36-20.37,20.36,20.36,0,0,1-20.36,20.37ZM256,205.41A50.59,50.59,0,1,0,306.59,256h0A50.59,50.59,0,0,0,256,205.41Zm64.67-77.21H191.33a63.11,63.11,0,0,0-63.13,63.07V320.64a63.11,63.11,0,0,0,63.07,63.13h129.4A63.11,63.11,0,0,0,383.8,320.7V191.3a63.1,63.1,0,0,0-63.1-63.1ZM256,338.76A82.76,82.76,0,1,1,338.76,256h0A82.87,82.87,0,0,1,256,338.76Zm83.23-145.1a20.37,20.37,0,1,1,20.36-20.37,20.36,20.36,0,0,1-20.36,20.37ZM256,205.41A50.59,50.59,0,1,0,306.59,256h0A50.59,50.59,0,0,0,256,205.41ZM503.27,91.55A93.25,93.25,0,0,0,420.42,8.73a1549,1549,0,0,0-328.73,0,93.26,93.26,0,0,0-83,82.82,1549,1549,0,0,0,0,328.73,93.26,93.26,0,0,0,82.85,83,1541.13,1541.13,0,0,0,328.73,0,93.26,93.26,0,0,0,83-82.88A1548.73,1548.73,0,0,0,503.27,91.55ZM416,320.64A95.42,95.42,0,0,1,320.67,416H191.33A95.45,95.45,0,0,1,96,320.64V191.3A95.41,95.41,0,0,1,191.33,96H320.67A95.41,95.41,0,0,1,416,191.3ZM320.67,128.2H191.33a63.11,63.11,0,0,0-63.13,63.07V320.64a63.11,63.11,0,0,0,63.07,63.13h129.4A63.11,63.11,0,0,0,383.8,320.7V191.3a63.1,63.1,0,0,0-63.1-63.1ZM256,338.76A82.76,82.76,0,1,1,338.76,256h0A82.87,82.87,0,0,1,256,338.76Zm83.23-145.1a20.37,20.37,0,1,1,20.36-20.37,20.36,20.36,0,0,1-20.36,20.37ZM256,205.41A50.59,50.59,0,1,0,306.59,256h0A50.59,50.59,0,0,0,256,205.41Z" transform="translate(0.02 0.02)"/></svg>