<svg xmlns="http://www.w3.org/2000/svg" viewBox="0 0 24 24"><path d="M15.35,0H8.65C2.59,0,0,2.59,0,8.65v6.7C0,21.41,2.59,24,8.65,24h6.7C21.41,24,24,21.41,24,15.35V8.65C24,2.59,21.41,0,15.35,0ZM8.65,1.67h6.7c5.15,0,7,1.83,7,7v3.62H19A3.05,3.05,0,0,0,16.22,14l-1,2a1.37,1.37,0,0,1-1.24.77H10A1.28,1.28,0,0,1,8.78,16l-1-2A3.05,3.05,0,0,0,5,12.28H1.67V8.65C1.67,3.5,3.5,1.67,8.65,1.67Zm6.7,20.66H8.65c-5.15,0-7-1.83-7-7V14H5a1.38,1.38,0,0,1,1.25.78l1,2A3,3,0,0,0,10,18.42H14a3,3,0,0,0,2.74-1.71l1-2A1.38,1.38,0,0,1,19,13.94h3.36v1.41C22.33,20.5,20.5,22.33,15.35,22.33ZM13.86,7.26H10.15a.84.84,0,0,1,0-1.68h3.71a.84.84,0,0,1,0,1.68Zm.93,3.34H9.21a.84.84,0,0,1-.84-.83.85.85,0,0,1,.84-.84h5.58a.85.85,0,0,1,.84.84A.84.84,0,0,1,14.79,10.6Z" style="fill:#ccc"/></svg>