<svg xmlns="http://www.w3.org/2000/svg" viewBox="0 0 20 24"><path d="M10,24A5.25,5.25,0,0,1,6.77,23l-4.6-3.58A6.34,6.34,0,0,1,0,14.86V6.56A4.7,4.7,0,0,1,2.76,2.41L8.09.32h0a6,6,0,0,1,3.81,0L17.24,2.4A4.71,4.71,0,0,1,20,6.56v8.3a6.34,6.34,0,0,1-2.17,4.51L13.23,23A5.25,5.25,0,0,1,10,24ZM8.66,1.88,3.32,4A3,3,0,0,0,1.6,6.56v8.3A4.72,4.72,0,0,0,3.13,18l4.6,3.58a3.92,3.92,0,0,0,4.54,0L16.87,18a4.72,4.72,0,0,0,1.53-3.17V6.56A3.08,3.08,0,0,0,16.68,4L11.34,1.88A4.53,4.53,0,0,0,8.66,1.88Zm.46,12.37,4.6-4.8a.85.85,0,0,0,0-1.18.77.77,0,0,0-1.13,0l-4,4.21L7.4,11.27a.77.77,0,0,0-1.13,0,.86.86,0,0,0,0,1.19L8,14.25a.77.77,0,0,0,.57.25A.75.75,0,0,0,9.12,14.25Z" transform="translate(0 0)" style="fill:#ccc"/></svg>