<svg xmlns="http://www.w3.org/2000/svg" viewBox="0 0 24 24"><path d="M15.35,24H8.65a13.14,13.14,0,0,1-3.74-.46.84.84,0,0,1-.6-.87c.29-3.35,3.66-6,7.69-6s7.4,2.61,7.69,6a.84.84,0,0,1-.6.87A13.14,13.14,0,0,1,15.35,24ZM6.11,22.11a13.54,13.54,0,0,0,2.54.21h6.7a13.54,13.54,0,0,0,2.54-.21c-.59-2.14-3-3.73-5.89-3.73S6.7,20,6.11,22.11Zm-1,1.46H4.92C1.57,22.62,0,20,0,15.38V8.65C0,2.59,2.59,0,8.65,0h6.7C21.41,0,24,2.59,24,8.65v6.7c0,4.64-1.56,7.24-4.92,8.19a.93.93,0,0,1-.71-.11A.88.88,0,0,1,18,22.8c-.22-2.48-2.85-4.46-6-4.46S6.2,20.28,6,22.8a.88.88,0,0,1-.35.63A.92.92,0,0,1,5.15,23.57ZM12,16.71c3.59,0,6.7,2.09,7.49,4.9,2-.91,2.84-2.85,2.84-6.26V8.65c0-5.15-1.84-7-7-7H8.65c-5.14,0-7,1.83-7,7v6.7c0,3.41.86,5.35,2.84,6.26C5.3,18.8,8.41,16.71,12,16.71Zm0-1.45a4.85,4.85,0,1,1,4.83-4.86h0A4.85,4.85,0,0,1,12,15.26Zm0-8a3.17,3.17,0,1,0,3.16,3.19v0A3.17,3.17,0,0,0,12,7.25Zm0,8a4.85,4.85,0,1,1,4.83-4.86h0A4.85,4.85,0,0,1,12,15.26Zm0-8a3.17,3.17,0,1,0,3.16,3.19v0A3.17,3.17,0,0,0,12,7.25Z" transform="translate(0 0)"/></svg>