<svg xmlns="http://www.w3.org/2000/svg" viewBox="0 0 512.04 512.12"><path d="M503.27,91.55A93.08,93.08,0,0,0,420.42,8.73a1541.13,1541.13,0,0,0-328.73,0,93.08,93.08,0,0,0-83,82.82,1549,1549,0,0,0,0,328.87,93.27,93.27,0,0,0,82.85,82.85,1541.13,1541.13,0,0,0,328.73,0,93.26,93.26,0,0,0,83-82.85,1549,1549,0,0,0,0-328.87Zm-102.6,256c-7.45,1.05-43.87,0-45.76,0a35.72,35.72,0,0,1-25.31-10.1c-7.68-7.41-14.55-15.56-22.05-23.27a59.19,59.19,0,0,0-7.19-6.51c-6-4.6-11.92-3.55-14.75,3.52A137.29,137.29,0,0,0,281,334.55c-.5,7.12-5,11.63-13.06,12.1-5,.29-9.95.38-14.87.26a113.43,113.43,0,0,1-51.46-12.74,140.2,140.2,0,0,1-44-38.46c-19.4-24.79-34.9-52-48.75-80.09-.73-1.42-14.93-31.59-15.27-33.05-1.28-4.74,0-9.3,3.92-10.9,2.5-1,49.28,0,50.07,0A16.44,16.44,0,0,1,163.29,183a243.55,243.55,0,0,0,35.14,61.62,33.55,33.55,0,0,0,7.13,6.48c3.81,2.62,7.41,1.72,9-2.7a76.7,76.7,0,0,0,3.25-18.77c.27-12.62,0-20.91-.69-33.54-.47-8.08-3.32-15.15-15.25-17.45-3.66-.67-4-3.7-1.63-6.72,4.92-6.26,11.64-7.27,19.17-7.62,11.23-.67,22.46-.24,33.69,0h2.44a67.08,67.08,0,0,1,14.55,1.45,13.48,13.48,0,0,1,10.68,12,46.63,46.63,0,0,1,.72,9.66c-.29,13.76-1,27.54-1.1,41.3a70.58,70.58,0,0,0,1.48,16.27c1.6,7.36,6.63,9.16,11.64,3.87a181.06,181.06,0,0,0,17.77-21.88,221.7,221.7,0,0,0,23.28-45.27c3.25-8.17,5.81-10,14.54-10h49.63a29.32,29.32,0,0,1,8.73,1.16,7.54,7.54,0,0,1,5.37,9.2,4.84,4.84,0,0,1-.17.54c-2.44,10.91-8.32,20.16-14.54,29.1C388,226,377.37,239.88,367,254a56.08,56.08,0,0,0-3.58,5.82c-3.9,7-3.61,10.94,2,16.76,9,9.28,18.65,17.95,27.34,27.49a162.35,162.35,0,0,1,17.23,22.37c6.37,9.89,2.44,19.32-9.43,21Z" transform="translate(0.02 0.06)"/></svg>